# xmcd
#
# Track frame offsets:
#	150
#	13159
#	25133
#	37135
#	49091
#	61656
#	73844
#	87357
#	99643
#	112710
#	125610
#	138222
#	151208
#	164842
#	177051
#	189344
#	202332
#	214525
#	226509
#	238890
#	250892
#	263449
#	275323
#	288445
#
# Disc length: 4015 seconds
#
# Revision: 0
# Processed by: cddbd v1.4PL0 Copyright (c) Steve Scherf et al.
#
# Submitted via: MusicManager v6.0.0.0
#
DISCID=500fad18
DTITLE=Various Artist - Shuffle Town Western Swing on King 1946-1950
DYEAR=1900
DGENRE=country
TTITLE0=Jimmy Wyble and his Rifftette - Huntin' Business All the Time
TTITLE1=Jimmie Widener - You Better Wake Up Babe
TTITLE2=Jimmie Widener - I've Got the Hesitation Blues
TTITLE3=Paul Howard and his Arkansas Cotton Pickers - Texas Boogie (alternate take)
TTITLE4=Jimmie Widener - You Can Stay At Home
TTITLE5=Jimmie Widener - Come a Little Bit Closer
TTITLE6=Ocie Stockard and His Wanderers - Opa Blues
TTITLE7=Boots Woodall and his Radio Wranglers - Rattle Snakin' Daddy
TTITLE8=Jimmy Wyble and his Rifftette - Taking My Time
TTITLE9=Jimmie Widener - I Hear You Knockin'
TTITLE10=Jimmie Widener - Don't Bother Me
TTITLE11=Ocie Stockard and His Wanderers - Cow Town Boogie
TTITLE12=Jimmy Wyble and his Rifftette - No More Blues
TTITLE13=Jimmie Widener - Shuffle Town
TTITLE14=Jimmie Widener - Let's Call It All Over Now
TTITLE15=Ocie Stockard and His Wanderers - Twin Guitar Polka
TTITLE16=Boots Woodall and his Radio Wranglers - Since You've Been Gone (alternate take)
TTITLE17=Jimmie Widener - That's My Lindy Lou
TTITLE18=Jimmie Widener - I'll Be Satisfied
TTITLE19=Billy Hughes - Cocaine Blues
TTITLE20=Jimmy Wyble and his Rifftette - Goodbye My Heart
TTITLE21=Jimmie Widener - Things Are Not Quite the Same
TTITLE22=Ocie Stockard and His Wanderers - Nobody Cares
TTITLE23=Paul Howard and his Arkansas Cotton Pickers - The Boogie's Fine Tonight
EXTD=
EXTT0=
EXTT1=
EXTT2=
EXTT3=
EXTT4=
EXTT5=
EXTT6=
EXTT7=
EXTT8=
EXTT9=
EXTT10=
EXTT11=
EXTT12=
EXTT13=
EXTT14=
EXTT15=
EXTT16=
EXTT17=
EXTT18=
EXTT19=
EXTT20=
EXTT21=
EXTT22=
EXTT23=
PLAYORDER=
